<mxfile host="app.diagrams.net" agent="Mozilla/5.0 (Macintosh; Intel Mac OS X 10_15_7) AppleWebKit/605.1.15 (KHTML, like Gecko) Version/17.4.1 Safari/605.1.15" version="24.7.17">
  <diagram name="Page-1" id="W3Pq9oCoq-ung5AiQryR">
    <mxGraphModel dx="506" dy="736" grid="1" gridSize="10" guides="1" tooltips="1" connect="1" arrows="1" fold="1" page="1" pageScale="1" pageWidth="827" pageHeight="1169" math="0" shadow="0">
      <root>
        <mxCell id="0" />
        <mxCell id="1" parent="0" />
        <mxCell id="7Sg2WTt5vQtRUIYprk8C-36" value="" style="rounded=0;whiteSpace=wrap;html=1;" vertex="1" parent="1">
          <mxGeometry x="111" y="70" width="599" height="300" as="geometry" />
        </mxCell>
        <mxCell id="7Sg2WTt5vQtRUIYprk8C-17" value="" style="rounded=0;whiteSpace=wrap;html=1;dashed=1;dashPattern=1 4;" vertex="1" parent="1">
          <mxGeometry x="120" y="80" width="100" height="280" as="geometry" />
        </mxCell>
        <mxCell id="7Sg2WTt5vQtRUIYprk8C-14" value="" style="shape=umlActor;verticalLabelPosition=bottom;verticalAlign=top;html=1;" vertex="1" parent="1">
          <mxGeometry x="145" y="190" width="30" height="60" as="geometry" />
        </mxCell>
        <mxCell id="7Sg2WTt5vQtRUIYprk8C-15" value="" style="shape=umlActor;verticalLabelPosition=bottom;verticalAlign=top;html=1;" vertex="1" parent="1">
          <mxGeometry x="145" y="90" width="30" height="60" as="geometry" />
        </mxCell>
        <mxCell id="7Sg2WTt5vQtRUIYprk8C-16" value="" style="shape=umlActor;verticalLabelPosition=bottom;verticalAlign=top;html=1;" vertex="1" parent="1">
          <mxGeometry x="145" y="290" width="30" height="60" as="geometry" />
        </mxCell>
        <mxCell id="7Sg2WTt5vQtRUIYprk8C-19" value="U&lt;div&gt;&lt;br&gt;&lt;div&gt;S&lt;/div&gt;&lt;div&gt;&lt;br&gt;&lt;/div&gt;&lt;div&gt;E&lt;/div&gt;&lt;div&gt;&lt;br&gt;&lt;/div&gt;&lt;div&gt;R&lt;/div&gt;&lt;div&gt;&lt;br&gt;&lt;/div&gt;&lt;div&gt;S&lt;/div&gt;&lt;/div&gt;" style="text;html=1;align=center;verticalAlign=middle;whiteSpace=wrap;rounded=0;" vertex="1" parent="1">
          <mxGeometry x="171" y="170" width="60" height="100" as="geometry" />
        </mxCell>
        <mxCell id="7Sg2WTt5vQtRUIYprk8C-21" value="" style="rounded=0;whiteSpace=wrap;html=1;dashed=1;dashPattern=1 4;" vertex="1" parent="1">
          <mxGeometry x="240" y="80" width="460" height="280" as="geometry" />
        </mxCell>
        <mxCell id="7Sg2WTt5vQtRUIYprk8C-22" value="E&lt;div&gt;&lt;br&gt;&lt;/div&gt;&lt;div&gt;S&lt;/div&gt;&lt;div&gt;&lt;br&gt;&lt;/div&gt;&lt;div&gt;B&lt;/div&gt;" style="rounded=1;whiteSpace=wrap;html=1;" vertex="1" parent="1">
          <mxGeometry x="260" y="100" width="50" height="240" as="geometry" />
        </mxCell>
        <mxCell id="7Sg2WTt5vQtRUIYprk8C-23" value="" style="endArrow=classic;html=1;rounded=0;entryX=0.004;entryY=0.209;entryDx=0;entryDy=0;entryPerimeter=0;" edge="1" parent="1" target="7Sg2WTt5vQtRUIYprk8C-22">
          <mxGeometry width="50" height="50" relative="1" as="geometry">
            <mxPoint x="220" y="150" as="sourcePoint" />
            <mxPoint x="270" y="100" as="targetPoint" />
          </mxGeometry>
        </mxCell>
        <mxCell id="7Sg2WTt5vQtRUIYprk8C-24" value="" style="endArrow=classic;html=1;rounded=0;entryX=0.004;entryY=0.209;entryDx=0;entryDy=0;entryPerimeter=0;" edge="1" parent="1">
          <mxGeometry width="50" height="50" relative="1" as="geometry">
            <mxPoint x="220" y="290" as="sourcePoint" />
            <mxPoint x="260" y="290" as="targetPoint" />
          </mxGeometry>
        </mxCell>
        <mxCell id="7Sg2WTt5vQtRUIYprk8C-25" value="" style="endArrow=classic;html=1;rounded=0;entryX=0.004;entryY=0.209;entryDx=0;entryDy=0;entryPerimeter=0;" edge="1" parent="1">
          <mxGeometry width="50" height="50" relative="1" as="geometry">
            <mxPoint x="220" y="219.66" as="sourcePoint" />
            <mxPoint x="260" y="219.66" as="targetPoint" />
          </mxGeometry>
        </mxCell>
        <mxCell id="7Sg2WTt5vQtRUIYprk8C-26" value="Manager Service" style="rounded=1;whiteSpace=wrap;html=1;" vertex="1" parent="1">
          <mxGeometry x="335" y="110" width="185" height="50" as="geometry" />
        </mxCell>
        <mxCell id="7Sg2WTt5vQtRUIYprk8C-27" value="Ambulance Service" style="rounded=1;whiteSpace=wrap;html=1;" vertex="1" parent="1">
          <mxGeometry x="335" y="195" width="185" height="50" as="geometry" />
        </mxCell>
        <mxCell id="7Sg2WTt5vQtRUIYprk8C-28" value="Hospital Service" style="rounded=1;whiteSpace=wrap;html=1;" vertex="1" parent="1">
          <mxGeometry x="335" y="280" width="185" height="50" as="geometry" />
        </mxCell>
        <mxCell id="7Sg2WTt5vQtRUIYprk8C-29" value="D&lt;div&gt;B&lt;br&gt;&lt;div&gt;&lt;br&gt;&lt;/div&gt;&lt;div&gt;S&lt;/div&gt;&lt;div&gt;E&lt;/div&gt;&lt;div&gt;R&lt;/div&gt;&lt;div&gt;V&lt;/div&gt;&lt;div&gt;I&lt;/div&gt;&lt;div&gt;C&lt;/div&gt;&lt;div&gt;E&lt;/div&gt;&lt;/div&gt;" style="rounded=1;whiteSpace=wrap;html=1;" vertex="1" parent="1">
          <mxGeometry x="545" y="100" width="50" height="240" as="geometry" />
        </mxCell>
        <mxCell id="7Sg2WTt5vQtRUIYprk8C-30" value="" style="endArrow=classic;html=1;rounded=0;entryX=0;entryY=0.5;entryDx=0;entryDy=0;" edge="1" parent="1" target="7Sg2WTt5vQtRUIYprk8C-26">
          <mxGeometry width="50" height="50" relative="1" as="geometry">
            <mxPoint x="310" y="134.66" as="sourcePoint" />
            <mxPoint x="350" y="134.66" as="targetPoint" />
          </mxGeometry>
        </mxCell>
        <mxCell id="7Sg2WTt5vQtRUIYprk8C-31" value="" style="endArrow=classic;html=1;rounded=0;entryX=0;entryY=0.5;entryDx=0;entryDy=0;" edge="1" parent="1">
          <mxGeometry width="50" height="50" relative="1" as="geometry">
            <mxPoint x="310" y="219.76" as="sourcePoint" />
            <mxPoint x="335" y="220.1" as="targetPoint" />
          </mxGeometry>
        </mxCell>
        <mxCell id="7Sg2WTt5vQtRUIYprk8C-32" value="" style="endArrow=classic;html=1;rounded=0;entryX=0;entryY=0.5;entryDx=0;entryDy=0;" edge="1" parent="1">
          <mxGeometry width="50" height="50" relative="1" as="geometry">
            <mxPoint x="310" y="304.76" as="sourcePoint" />
            <mxPoint x="335" y="305.1" as="targetPoint" />
          </mxGeometry>
        </mxCell>
        <mxCell id="7Sg2WTt5vQtRUIYprk8C-33" value="" style="endArrow=classic;html=1;rounded=0;entryX=0;entryY=0.5;entryDx=0;entryDy=0;" edge="1" parent="1">
          <mxGeometry width="50" height="50" relative="1" as="geometry">
            <mxPoint x="520" y="304.76" as="sourcePoint" />
            <mxPoint x="545" y="305.1" as="targetPoint" />
          </mxGeometry>
        </mxCell>
        <mxCell id="7Sg2WTt5vQtRUIYprk8C-34" value="" style="endArrow=classic;html=1;rounded=0;entryX=0;entryY=0.5;entryDx=0;entryDy=0;" edge="1" parent="1">
          <mxGeometry width="50" height="50" relative="1" as="geometry">
            <mxPoint x="520" y="219.76" as="sourcePoint" />
            <mxPoint x="545" y="220.1" as="targetPoint" />
          </mxGeometry>
        </mxCell>
        <mxCell id="7Sg2WTt5vQtRUIYprk8C-35" value="" style="endArrow=classic;html=1;rounded=0;entryX=0;entryY=0.5;entryDx=0;entryDy=0;" edge="1" parent="1">
          <mxGeometry width="50" height="50" relative="1" as="geometry">
            <mxPoint x="520" y="134.66" as="sourcePoint" />
            <mxPoint x="545" y="135" as="targetPoint" />
          </mxGeometry>
        </mxCell>
        <mxCell id="7Sg2WTt5vQtRUIYprk8C-38" value="" style="endArrow=classic;html=1;rounded=0;entryX=0;entryY=0.5;entryDx=0;entryDy=0;" edge="1" parent="1">
          <mxGeometry width="50" height="50" relative="1" as="geometry">
            <mxPoint x="595" y="219.70999999999998" as="sourcePoint" />
            <mxPoint x="620" y="220.04999999999998" as="targetPoint" />
          </mxGeometry>
        </mxCell>
        <mxCell id="7Sg2WTt5vQtRUIYprk8C-39" value="DB" style="shape=cylinder3;whiteSpace=wrap;html=1;boundedLbl=1;backgroundOutline=1;size=15;" vertex="1" parent="1">
          <mxGeometry x="620" y="100" width="55" height="240" as="geometry" />
        </mxCell>
      </root>
    </mxGraphModel>
  </diagram>
</mxfile>
